<svg viewBox="0 0 481 571"  xml:space="preserve" preserveAspectRatio="xMidYMid meet"  fill="none" xmlns="http://www.w3.org/2000/svg">
  <path fill-rule="evenodd" clip-rule="evenodd" d="M30.322 10.417H466.16v554.916H30.321V10.417z" fill="#F3A140" stroke="#1C2628" stroke-width="2.13" stroke-linecap="round" stroke-linejoin="round"/>
  <path d="M30.405 263.5l434.005.167M30.405 411.583l434.005.167" stroke="#1C2628" stroke-width="2.13" stroke-linecap="round" stroke-linejoin="round"/>
  <path fill-rule="evenodd" clip-rule="evenodd" d="M23.486 546.75h458.181v22.833H23.486V546.75z" fill="#1C2628" stroke="#1C2628" stroke-width="2.13" stroke-linecap="round" stroke-linejoin="round"/>
  <path d="M249.659 12.917l6.419 552.166" stroke="#1C2628" stroke-width="2.13" stroke-linecap="round" stroke-linejoin="round"/>
  <path fill-rule="evenodd" clip-rule="evenodd" d="M190.719 390.833c-12.589 20.917-53.355 103.834-53.355 103.834S113.772 509 84.427 520.917C65.669 528.5 37.074 532.833 34.824 539.5c-6.086 18.167 60.69 3.417 85.2 1.5 24.927-2 65.443 26.667 88.452 11.417 15.006-9.917-.584-33.917.75-47.417s9.67-105.333 18.174-116.5" fill="#F45B49"/>
  <path d="M190.719 390.833c-12.589 20.917-53.355 103.834-53.355 103.834S113.772 509 84.427 520.917C65.669 528.5 37.074 532.833 34.824 539.5c-6.086 18.167 60.69 3.417 85.2 1.5 24.927-2 65.443 26.667 88.452 11.417 15.006-9.917-.584-33.917.75-47.417s9.67-105.333 18.174-116.5" stroke="#1C2628" stroke-width="2.13" stroke-linecap="round" stroke-linejoin="round"/>
  <path fill-rule="evenodd" clip-rule="evenodd" d="M319.686 425.25s-107.959-186.5-174.652-130.5c-36.348 30.5-68.194 199.083-68.194 199.083l65.443 14.334L185.967 437s19.424 88 55.438 104.833c20.258 9.5 102.207 14.834 141.89 5.667 30.845-7.083 30.262-37 30.262-37l-93.871-85.25z" fill="#1C2628" stroke="#1C2628" stroke-width="2.13" stroke-linecap="round" stroke-linejoin="round"/>
  <path fill-rule="evenodd" clip-rule="evenodd" d="M157.539 397.75c-12.588 20.917-53.355 103.833-53.355 103.833s-23.592 14.334-52.937 26.25c-18.758 7.584-47.352 11.917-49.603 18.584-6.17 18.166 48.019 10.416 72.528 8.5 24.927-2 68.945 9.25 83.117-1.917 14.172-11.167 4.085-26 13.505-44.917C182.799 484 203.39 454.167 211.894 443" fill="#F45B49"/>
  <path d="M157.539 397.75c-12.588 20.917-53.355 103.833-53.355 103.833s-23.592 14.334-52.937 26.25c-18.758 7.584-47.352 11.917-49.603 18.584-6.17 18.166 48.019 10.416 72.528 8.5 24.927-2 68.944 9.25 83.117-1.917 14.172-11.167 4.085-26 13.505-44.917C182.799 484 203.39 454.167 211.894 443" stroke="#1C2628" stroke-width="2.13" stroke-linecap="round" stroke-linejoin="round"/>
  <path fill-rule="evenodd" clip-rule="evenodd" d="M255.494 236.333c-33.013-33-28.344-81.333-22.759-86 58.94-49 92.537 8.75 108.043 7.834 38.015 4.666 65.609 21.5 68.777 48.083 2.751 23.333 0 81.417-45.268 75.25-27.927-9.583-105.708 8.25-129.634-11.333-12.922-10.584-4.669-87.417-13.422-101.5" fill="#1C2628"/>
  <path d="M255.494 236.333c-33.013-33-28.344-81.333-22.759-86 58.94-49 92.537 8.75 108.043 7.834 38.015 4.666 65.609 21.5 68.777 48.083 2.751 23.333 0 81.417-45.268 75.25-27.927-9.583-105.708 8.25-129.634-11.333-12.922-10.584-4.669-87.417-13.422-101.5" stroke="#1C2628" stroke-width="2.13" stroke-linecap="round" stroke-linejoin="round"/>
  <path fill-rule="evenodd" clip-rule="evenodd" d="M466.328 507.25s-.667.417-2.001 1.083c-8.337 4-41.6 16.417-77.114-18.5-4.418-4.333-8.837-9.416-13.255-15.25-45.601-60.833-76.114-71.083-76.114-71.083l-59.773-110-2.751-5-39.016-45.583L244.74 210.5l116.379 23.917s26.928-23.167 56.523 14.166c6.753 8.584 13.672 20.25 20.508 36.167 14.172 33.25 15.423 107.667 16.673 161.833.917 34.917 11.505 60.667 11.505 60.667z" fill="#FAF6EB" stroke="#1C2628" stroke-width="2.13" stroke-linecap="round" stroke-linejoin="round"/>
  <path fill-rule="evenodd" clip-rule="evenodd" d="M314.268 202.5l16.423 31.25 28.261 14.5s-11.004 25.917-33.93 34.25c-22.926 8.333-34.264 1.417-43.517-1.833-9.337-3.25-18.424-17.75-18.424-17.75l10.421-16.834-10.171-13.333 50.937-30.25z" fill="#F45B49" stroke="#1C2628" stroke-width="2.13" stroke-linecap="round" stroke-linejoin="round"/>
  <path fill-rule="evenodd" clip-rule="evenodd" d="M308.098 179.667c-3.084-9.25 2.251-12.084-4.501-17.917-12.005-10.5-28.428-14.583-43.684-9.333-17.174 5.833-36.181 10.333-37.849 28.5-.667 7 8.004 25.75 10.421 33 8.67 25.833 35.014 40.25 58.857 32.166 15.256-5.166 25.01-13.416 28.344-29.083 1.751-8.667-8.503-28-11.588-37.333z" fill="#F45B49" stroke="#1C2628" stroke-width="2.13" stroke-linecap="round" stroke-linejoin="round"/>
  <path fill-rule="evenodd" clip-rule="evenodd" d="M251.66 209.333c1.75 9.084-1.168 18.917 4.084 19.917 6.92 1.25 11.672-13.5 11.338-15.417" fill="#F45B49"/>
  <path d="M251.66 209.333c1.75 9.084-1.168 18.917 4.084 19.917 6.92 1.25 11.672-13.5 11.338-15.417M286.423 210.333c1.251 7.917-3.084 12.584-10.004 14.25" stroke="#1C2628" stroke-width="2.13" stroke-linecap="round" stroke-linejoin="round"/>
  <path fill-rule="evenodd" clip-rule="evenodd" d="M333.275 240.583l-18.174-34s-29.261 11.667-30.845 22.5c-1.584 10.834 19.507 28.25 19.507 28.25l16.84-8.083" fill="#FB564C"/>
  <path fill-rule="evenodd" clip-rule="evenodd" d="M303.097 168.083c-28.845 25.917-65.693 8.25-65.693 8.25s5.085 28.75-7.253 41c-12.338 12.167-27.094-6.166-21.509-34.666 5.669-28.417 42.267-51.917 62.859-49.834 17.256 1.834 54.438 14.667 31.596 35.25z" fill="#1C2628" stroke="#1C2628" stroke-width="2.13" stroke-linecap="round" stroke-linejoin="round"/>
  <path fill-rule="evenodd" clip-rule="evenodd" d="M296.094 174.167c-1.417-5.334 6.085-8.584 10.087-7.25 8.42 2.666 16.257 16.083 1.834 22" fill="#F45B49"/>
  <path d="M296.094 174.167c-1.417-5.334 6.085-8.584 10.087-7.25 8.42 2.666 16.257 16.083 1.834 22" stroke="#1C2628" stroke-width="2.13" stroke-linecap="round" stroke-linejoin="round"/>
  <path d="M370.29 204.833c15.423 10.75 20.425 10.167 35.347 16" stroke="#FAF6EB" stroke-width="2.13" stroke-linecap="round" stroke-linejoin="round"/>
  <path fill-rule="evenodd" clip-rule="evenodd" d="M264.498 246.417l17.173.833 15.757-5.75s-6.003 16.667-14.423 23.667c-8.336 7-28.428 6.916-28.428 6.916l9.921-25.666z" fill="#1C2628" stroke="#1C2628" stroke-width="2.13" stroke-linecap="round" stroke-linejoin="round"/>
  <path d="M304.764 176.083c.083.417.167.75.25 1.167" stroke="#1C2628" stroke-width="2.13" stroke-linecap="round" stroke-linejoin="round"/>
  <path fill-rule="evenodd" clip-rule="evenodd" d="M418.392 552c-39.682 9.167-123.716 9.583-143.974.167-36.014-16.834-62.107-103.834-62.107-103.834l-35.014 64.334-75.53-24.084-1.584-.5s45.351-174.75 80.032-207.166c67.776-46.5 174.569 148.916 174.569 148.916l54.855 49.834 39.015 35.416s.584 29.834-30.262 36.917z" fill="#1C2628" stroke="#1C2628" stroke-width="2.13" stroke-linecap="round" stroke-linejoin="round"/>
  <path fill-rule="evenodd" clip-rule="evenodd" d="M354.7 429.833S247.908 234.5 180.131 280.917C145.451 313.25 102.1 480.5 102.1 480.5c.834 0 2.501-.417 4.585-1.083 21.592-7.25 37.349-27.75 36.181-50.584-2.417-44.916 41.517-166.583 92.12-107.416 16.673 19.5 42.851 21.333 51.354 36.083 6.669 11.833-.834 27 5.002 39.667 5.835 14.333 23.509 14.333 36.097 21.083 20.092 10.167 28.512 70.333 82.2 61.417L354.7 429.833z" fill="#FAF6EB"/>
  <path d="M262.997 199.333c7.503-3.333 12.005-4.5 13.172-14M234.986 219.75c4.085-1.833 6.836-3 8.504-7.333M215.395 174.25c-7.92 8-14.422 31.917-8.086 42.583 2.417 4 8.586 4.334 10.254 7.75 7.086 14.25-10.254 20.167 14.422 30.75M289.258 137.917c9.92-.584 22.259-.834 31.929 2.833 11.171 4.167 20.508 11.75 31.596 15.583 24.009 8.25 52.771 3.25 52.771 46.25" stroke="#1C2628" stroke-width="2.13" stroke-linecap="round" stroke-linejoin="round"/>
  <path fill-rule="evenodd" clip-rule="evenodd" d="M357.201 320.083c-1.167-8.25-3.751-33.083-7.253-64.5-1.917-17.833.834-42 .834-42s-3.418-3.916-5.752-.916c-2.334 3-3.252 12.833-3.502 12.833-4.001-.833-27.26-49.583-33.346-46.5-4.419 2.167 13.755 30.167 13.755 30.167s-19.841-31.834-23.342-29c-4.002 3.25 16.34 32.583 16.34 32.583s-18.758-30.75-23.676-28.417c-4.836 2.334 16.84 33.25 16.256 33.5-1.751.75-19.591-27.5-23.176-25.75-3.418 1.667 14.172 28.5 19.424 42.834 7.42 20-3.334 150.083 27.095 174.666 16.84 13.584 41.766 12.584 57.689-6.416 15.84-19 34.764-69.417 34.764-69.417L378.96 286c0-.083-20.925 39.917-21.759 34.083z" fill="#F45B49" stroke="#1C2628" stroke-width="2.13" stroke-linecap="round" stroke-linejoin="round"/>
  <path fill-rule="evenodd" clip-rule="evenodd" d="M395.967 234.667s-52.605-27.75-44.601 31.583c7.252 46.667 3.501 58.583 3.501 58.583s2.251-3.083 23.343 9.667c21.091 12.75 36.847 35.833 36.847 35.833s20.092-55.666 11.505-78" fill="#FAF6EB"/>
  <path d="M395.967 234.667s-52.605-27.75-44.601 31.583c7.252 46.667 3.501 58.583 3.501 58.583s2.251-3.083 23.343 9.667c21.091 12.75 36.847 35.833 36.847 35.833s20.092-55.666 11.505-78" stroke="#1C2628" stroke-width="2.13" stroke-linecap="round" stroke-linejoin="round"/>
  <path fill-rule="evenodd" clip-rule="evenodd" d="M196.304 242.667s-36.014 33.5-5.002 50.166c31.013 16.667 112.545-3.75 112.545-3.75l18.757-.833s1.084 4.917 5.586 21.583c4.418 16.584 6.586 36.5 12.171 44.917 5.669 8.417 6.67.167 6.67.167L343.779 324s6.169 35.833 9.254 34.167c3.168-1.667.667-35.5.667-35.5s10.171 33.916 12.171 33.5c2.001-.417-.667-35.75-.667-35.75s7.587 44.666 8.921 34.916c1.333-9.75 1-35.166-2.751-64.166-1.835-14.084-15.59-39.167-43.101-43.167-16.256-2.333-131.969-5.333-131.969-5.333z" fill="#F45B49" stroke="#1C2628" stroke-width="2.13" stroke-linecap="round" stroke-linejoin="round"/>
  <path fill-rule="evenodd" clip-rule="evenodd" d="M223.898 218.75c-7.252 42.75 22.426 33.417 22.426 33.417l18.924-5.667s-21.425-10.417-22.926-12.5c-1.667-2.333-12.755-19.583-14.005-22.25" fill="#1C2628"/>
  <path d="M223.898 218.75c-7.252 42.75 22.426 33.417 22.426 33.417l18.924-5.667s-21.425-10.417-22.926-12.5c-1.667-2.333-12.755-19.583-14.005-22.25" stroke="#1C2628" stroke-width="2.13" stroke-linecap="round" stroke-linejoin="round"/>
  <path d="M276.919 301.833C274.168 307.25 286.673 343 310.266 343l-33.347-41.167z" fill="#FAF6EB"/>
  <path d="M276.919 301.833C274.168 307.25 286.673 343 310.266 343" stroke="#1C2628" stroke-width="2.13" stroke-linecap="round" stroke-linejoin="round"/>
  <path d="M197.471 475.667c1.584-1.917 14.923-27.334 14.923-27.334s6.086 22.75 10.921 33.5c11.838 26.584 27.678 53 50.186 65.25" stroke="#FAF6EB" stroke-width="2.13" stroke-linecap="round" stroke-linejoin="round"/>
  <path fill-rule="evenodd" clip-rule="evenodd" d="M428.146 321.417l-7.586 67.166-30.096 13.5 20.342-38.333 4.502 6.667 12.838-49z" fill="#1C2628" stroke="#1C2628" stroke-width="2.13" stroke-linecap="round" stroke-linejoin="round"/>
  <path fill-rule="evenodd" clip-rule="evenodd" d="M350.449 418.167c4.335 11.666 18.84 23.916 23.592 33.583 22.092 44.667 21.842 82.917 81.699 59" fill="#FAF6EB"/>
  <path d="M350.449 418.167c4.335 11.666 18.84 23.916 23.592 33.583 22.092 44.667 21.842 82.917 81.699 59" stroke="#1C2628" stroke-width="2.13" stroke-linecap="round" stroke-linejoin="round"/>
  <path d="M378.793 439.25c5.502 10.667 10.588 21.75 15.34 32.833 7.002 16.5 15.589 43.75 40.432 35" stroke="#1C2628" stroke-width="2.13" stroke-linecap="round" stroke-linejoin="round"/>
  <path fill-rule="evenodd" clip-rule="evenodd" d="M175.046 512c-8.587 1.583-30.179-3.917-47.602-3.167-6.003.25-11.171-2.583-11.171-2.583s-10.921-7.333-14.339-4.917c-3.002 2.084-2.668 9.834-2.668 9.834s-6.003 3.25-6.42 7.25c-.083 1 0 5.5 0 5.5s.667 5.666 2.668 10.583c2.001 4.917 33.097 9.583 49.52 14.417 4.585 1.333 30.345 9.75 43.1 7.416" fill="#F45B49"/>
  <path d="M175.046 512c-8.587 1.583-30.179-3.917-47.602-3.167-6.003.25-11.171-2.583-11.171-2.583s-10.921-7.333-14.339-4.917c-3.002 2.084-2.668 9.834-2.668 9.834s-6.003 3.25-6.42 7.25c-.083 1 0 5.5 0 5.5s.667 5.666 2.668 10.583c2.001 4.917 33.097 9.583 49.52 14.417 4.585 1.333 30.345 9.75 43.1 7.416" stroke="#1C2628" stroke-width="2.13" stroke-linecap="round" stroke-linejoin="round"/>
  <path d="M196.054 536.75c-7.086-2.917-13.922-2.75-21.258-4.5-7.42-1.75-14.923-4.75-22.009-7.583M101.6 520.75c-2.084 4.417-3.335 7.333-4.752 12M30.405 115.417l434.005.166" stroke="#1C2628" stroke-width="2.13" stroke-linecap="round" stroke-linejoin="round"/>
  <path fill-rule="evenodd" clip-rule="evenodd" d="M288.841 169.25c0-8.5 7.086-15.417 15.839-15.417 8.754 0 15.84 6.917 15.84 15.417s-7.086 15.417-15.84 15.417c-8.753-.084-15.839-6.917-15.839-15.417z" fill="#FAF6EB" stroke="#1C2628" stroke-width="2.13" stroke-linecap="round" stroke-linejoin="round"/>
  <path fill-rule="evenodd" clip-rule="evenodd" d="M207.058 187.417s-9.587-31.667 23.343-49.834c38.849-21.5 72.946 23.5 72.946 23.5l-5.836 9.25s-43.434-33.25-79.115-8.333c-17.006 11.833-11.338 25.417-11.338 25.417z" fill="#FAF6EB" stroke="#1C2628" stroke-width="2.13" stroke-linecap="round" stroke-linejoin="round"/>
  <path fill-rule="evenodd" clip-rule="evenodd" d="M296.177 168.167c0-4.834 3.835-8.834 8.503-8.834 4.669 0 8.504 3.917 8.504 8.834 0 4.833-3.835 8.833-8.504 8.833-4.668 0-8.503-3.917-8.503-8.833z" fill="#FAF6EB" stroke="#1C2628" stroke-width="2.13" stroke-linecap="round" stroke-linejoin="round"/>
  <path d="M255.995 298.75s37.431 37.5 55.438 63.417l-55.438-63.417z" fill="#FAF6EB"/>
  <path d="M255.995 298.75s37.431 37.5 55.438 63.417" stroke="#1C2628" stroke-width="2.13" stroke-linecap="round" stroke-linejoin="round"/>
  <path fill-rule="evenodd" clip-rule="evenodd" d="M438.233 284.833c-6.752-15.916-13.672-27.666-20.508-36.166-7.253 4.5-13.088 11.083-14.922 18.25C397.551 287 426.562 297.583 437.566 340c2.168 8.333 7.086 27.917 2.001 51-2.668 12.333-8.67 28.333-12.755 39.25-5.669 15.25 2.168 32.5 17.59 37.417.417.166.834.25 1.168.333 3.751 1.083 7.586 2.083 11.421 3.083a178.515 178.515 0 01-2.168-24.416c-1.167-54.084-2.417-128.5-16.59-161.834z" fill="#1C2628" stroke="#1C2628" stroke-width="2.13" stroke-linecap="round" stroke-linejoin="round"/>
  <path d="M249.909 356c5.752 1.417 12.088 3.167 15.423 8.083 2.167 3.167 2.667 7.084 3.168 10.917.917 6.917 1.917 14 4.918 20.25M256.245 373.083c3.501 3.917 4.835 9.334 5.418 14.5.584 5.167.667 10.584 2.168 15.584M297.511 419.917c1.584 3.25 5.085 5 8.503 6.083 3.418 1.083 7.087 1.5 10.254 3.083 6.17 3.167 9.504 9.834 12.922 15.917 3.585 6.25 7.837 12.167 12.505 17.667M324.772 454.333c5.002 9.917 12.588 18.5 21.675 24.834M258.662 514.833c10.921 19.584 32.93 32.334 55.272 31.917M294.26 531c8.753 5 19.091 7.083 29.011 5.833M109.77 401.25c-2.168 9.5-4.335 19-6.586 28.5M122.692 390.5l-5.919 20.917" stroke="#fff" stroke-width="2.13" stroke-linecap="round" stroke-linejoin="round"/>
  <path d="M426.395 411.417c-6.752 13.166-10.004 28.083-9.42 42.833.167 3.833.584 7.833 2.501 11.167 1.917 3.333 5.669 5.833 9.504 5.25.75-.167 1.584-.417 2.167-.917 1.501-1.333 1.251-4.083-.333-5.417-1.584-1.333-3.918-1.416-5.752-.666-2.251 4.5.583 10.25 4.918 12.916 4.252 2.667 9.504 3 14.506 3.334" stroke="#1C2628" stroke-width="2.13" stroke-linecap="round" stroke-linejoin="round"/>
  <path fill-rule="evenodd" clip-rule="evenodd" d="M167.043 240.25c-2.668-1.833-4.502-4.833-4.919-8.083-.667-5.417 4.002-11.5 9.42-10.5 5.253 1 7.587 7.25 7.92 12.583.167 2 0 4.25-1.334 5.75-2.501 2.667-6.919.75-10.504 1.5" fill="#1C2628"/>
  <path d="M167.043 240.25c-2.668-1.833-4.502-4.833-4.919-8.083-.667-5.417 4.002-11.5 9.42-10.5 5.253 1 7.587 7.25 7.92 12.583.167 2 0 4.25-1.334 5.75-2.501 2.667-6.919.75-10.504 1.5M134.53 430.583c.833 9.917-4.169 20.167-12.422 25.584M123.859 437.667c.583 2.666-.25 5.583-2.168 7.5M209.309 73.333l8.17 26.25M282.338 58.333l-6.669 44.25M304.68 85.333l-5.918 20.25M369.539 41.833l-32.762 65.25M395.633 96.583l-36.514 36.75M388.964 145.333l27.511-13.5" stroke="#1C2628" stroke-width="2.13" stroke-linecap="round" stroke-linejoin="round"/>
  <path d="M341.695 547.083l92.87-.333" stroke="#fff" stroke-width="2.13" stroke-linecap="round" stroke-linejoin="round"/>
  <path d="M75.84 342.667l10.42-46.5c1.084 2.25 3.085 4.833 6.587 8.5l1.167 1.166c4.835 4.75 12.921 12.834 7.669 20.834-.416.583-.25 1.416.334 1.75.25.166.5.25.667.25.417 0 .833-.167 1.084-.584 6.419-9.75-3.002-19.083-8.004-24.083l-1.167-1.167c-6.419-6.583-7.086-9.333-7.253-12.083l2.752-12.167c1.083 2.25 3.084 4.834 6.669 8.5l1.25 1.25c4.836 4.75 12.922 12.834 7.67 20.834-.417.583-.25 1.416.333 1.75.251.166.501.25.667.25.417 0 .834-.167 1.084-.584 6.419-9.75-3.001-19.083-8.003-24l-1.167-1.166c-6.503-6.667-7.086-9.334-7.253-12.167 0-.667-.5-1.167-1.334-1.25-.667 0-1.25.583-1.25 1.333-.084.084-.084.167-.167.334l-14.506 65.416c-2.918-3.416-8.42-5.083-14.255-3.916-7.754 1.583-13.172 7.583-12.005 13.416 1.167 5.917 8.42 9.417 16.173 7.834 7.753-1.5 13.172-7.584 12.005-13.417-.084-.083-.084-.167-.167-.333z" fill="#1C2628" stroke="#1C2628" stroke-width="2.13" stroke-linecap="round" stroke-linejoin="round"/>
</svg>
